<?xml version="1.0" encoding="UTF-8" standalone="no"?>
<!-- Created with Inkscape (http://www.inkscape.org/) -->

<svg
   xmlns:dc="http://purl.org/dc/elements/1.1/"
   xmlns:cc="http://creativecommons.org/ns#"
   xmlns:rdf="http://www.w3.org/1999/02/22-rdf-syntax-ns#"
   xmlns:svg="http://www.w3.org/2000/svg"
   xmlns="http://www.w3.org/2000/svg"
   xmlns:sodipodi="http://sodipodi.sourceforge.net/DTD/sodipodi-0.dtd"
   xmlns:inkscape="http://www.inkscape.org/namespaces/inkscape"
   width="1052.3622"
   height="744.09448"
   id="svg2"
   version="1.1"
   inkscape:version="0.48.5 r10040"
   sodipodi:docname="overview.svg">
  <defs
     id="defs4" />
  <sodipodi:namedview
     id="base"
     pagecolor="#ffffff"
     bordercolor="#666666"
     borderopacity="1.0"
     inkscape:pageopacity="0.0"
     inkscape:pageshadow="2"
     inkscape:zoom="1.0737884"
     inkscape:cx="526.18109"
     inkscape:cy="372.04724"
     inkscape:document-units="px"
     inkscape:current-layer="layer1"
     showgrid="true"
     inkscape:window-width="1650"
     inkscape:window-height="1005"
     inkscape:window-x="30"
     inkscape:window-y="1"
     inkscape:window-maximized="1">
    <inkscape:grid
       type="xygrid"
       id="grid3006"
       empspacing="5"
       visible="true"
       enabled="true"
       snapvisiblegridlinesonly="true" />
  </sodipodi:namedview>
  <metadata
     id="metadata7">
    <rdf:RDF>
      <cc:Work
         rdf:about="">
        <dc:format>image/svg+xml</dc:format>
        <dc:type
           rdf:resource="http://purl.org/dc/dcmitype/StillImage" />
        <dc:title />
      </cc:Work>
    </rdf:RDF>
  </metadata>
  <g
     inkscape:label="Layer 1"
     inkscape:groupmode="layer"
     id="layer1"
     transform="translate(0,-308.2677)">
    <path
       inkscape:connector-curvature="0"
       id="path3247"
       d="m 710,932.36218 40,-90 200,0"
       style="fill:none;stroke:#000000;stroke-width:1px;stroke-linecap:butt;stroke-linejoin:miter;stroke-opacity:1"
       sodipodi:nodetypes="ccc" />
    <path
       style="fill:none;stroke:#000000;stroke-width:1px;stroke-linecap:butt;stroke-linejoin:miter;stroke-opacity:1"
       d="m 30,932.3622 960,0"
       id="path3139"
       inkscape:connector-curvature="0" />
    <rect
       style="fill:#f9f9f9;stroke:#000000;stroke-width:1.5;stroke-linejoin:round;stroke-miterlimit:4;stroke-opacity:1;stroke-dasharray:none;stroke-dashoffset:0"
       id="frequent-crawls"
       width="90"
       height="310"
       x="150"
       y="394.36218"
       ry="14"
       inkscape:label="#rect3903">
      <title
         id="title3074">Frequent Crawls</title>
    </rect>
    <path
       sodipodi:type="arc"
       style="fill:#ff0000;fill-opacity:1;stroke:#000000;stroke-width:2;stroke-linejoin:round;stroke-miterlimit:4;stroke-opacity:1;stroke-dasharray:none"
       id="hdfs-prod"
       sodipodi:cx="340"
       sodipodi:cy="254.09448"
       sodipodi:rx="20"
       sodipodi:ry="20"
       d="m 360,254.09448 a 20,20 0 1 1 -40,0 20,20 0 1 1 40,0 z"
       transform="matrix(1,0,0,-1,92,712.45666)">
      <title
         id="title3778">HDFS</title>
    </path>
    <path
       style="fill:none;stroke:#000000;stroke-width:3;stroke-linecap:butt;stroke-linejoin:miter;stroke-miterlimit:4;stroke-opacity:1;stroke-dasharray:3, 3;stroke-dashoffset:0"
       d="m 60,554.36218 c 30,0 70,-40 110,-80"
       id="pc-daily-rate"
       inkscape:connector-curvature="0"
       sodipodi:nodetypes="cc">
      <title
         id="title3790">Daily Crawl Downloads</title>
    </path>
    <path
       sodipodi:nodetypes="cc"
       inkscape:connector-curvature="0"
       id="pc-weekly-rate"
       d="m 60,564.36218 c 60,-10 80,-20 110,-50"
       style="fill:none;stroke:#000000;stroke-width:3;stroke-linecap:butt;stroke-linejoin:miter;stroke-miterlimit:4;stroke-opacity:1;stroke-dasharray:3, 3;stroke-dashoffset:0"
       inkscape:label="#path3867">
      <title
         id="title3869">Weekly Crawl Downloads</title>
    </path>
    <path
       transform="matrix(0.7,0,0,-0.7,-61.398437,650.72832)"
       d="m 360,254.09448 a 20,20 0 1 1 -40,0 20,20 0 1 1 40,0 z"
       sodipodi:ry="20"
       sodipodi:rx="20"
       sodipodi:cy="254.09448"
       sodipodi:cx="340"
       id="h3-pc-daily"
       style="fill:#ff0000;fill-opacity:1;stroke:#000000;stroke-width:2;stroke-linejoin:round;stroke-miterlimit:4;stroke-opacity:1;stroke-dasharray:none"
       sodipodi:type="arc"
       inkscape:label="#h3-pc-daily">
      <title
         id="title3782">Daily Crawl</title>
    </path>
    <path
       inkscape:label="#h3-pc-weekly"
       sodipodi:type="arc"
       style="fill:#ff0000;fill-opacity:1;stroke:#000000;stroke-width:2;stroke-linejoin:round;stroke-miterlimit:4;stroke-opacity:1;stroke-dasharray:none"
       id="h3-pc-weekly"
       sodipodi:cx="340"
       sodipodi:cy="254.09448"
       sodipodi:rx="20"
       sodipodi:ry="20"
       d="m 360,254.09448 a 20,20 0 1 1 -40,0 20,20 0 1 1 40,0 z"
       transform="matrix(0.7,0,0,-0.7,-61.398437,692.52828)">
      <title
         id="title3851">Weekly Crawl</title>
    </path>
    <path
       sodipodi:nodetypes="cc"
       inkscape:connector-curvature="0"
       id="pc-monthly-rate"
       d="m 60,574.36218 c 60,0 80,0 110,-20"
       style="fill:none;stroke:#000000;stroke-width:3;stroke-linecap:butt;stroke-linejoin:miter;stroke-miterlimit:4;stroke-opacity:1;stroke-dasharray:3, 3;stroke-dashoffset:0"
       inkscape:label="#path3871">
      <title
         id="title3873">Monthly Crawl Downloads</title>
    </path>
    <path
       inkscape:label="#path3867"
       style="fill:none;stroke:#000000;stroke-width:3;stroke-linecap:butt;stroke-linejoin:miter;stroke-miterlimit:4;stroke-opacity:1;stroke-dasharray:3, 3;stroke-dashoffset:0"
       d="m 60,584.36218 c 40,10 80,20 110,10"
       id="pc-quarterly-rate"
       inkscape:connector-curvature="0"
       sodipodi:nodetypes="cc">
      <title
         id="title3877">Quarterly Crawl Downloads</title>
    </path>
    <path
       inkscape:label="#h3-pc-monthly"
       sodipodi:type="arc"
       style="fill:#ff0000;fill-opacity:1;stroke:#000000;stroke-width:2;stroke-linejoin:round;stroke-miterlimit:4;stroke-opacity:1;stroke-dasharray:none"
       id="h3-pc-monthly"
       sodipodi:cx="340"
       sodipodi:cy="254.09448"
       sodipodi:rx="20"
       sodipodi:ry="20"
       d="m 360,254.09448 a 20,20 0 1 1 -40,0 20,20 0 1 1 40,0 z"
       transform="matrix(0.7,0,0,-0.7,-61.398437,734.32831)">
      <title
         id="title3881">Monthly Crawl</title>
    </path>
    <path
       transform="matrix(0.7,0,0,-0.7,-61.398437,776.12834)"
       d="m 360,254.09448 a 20,20 0 1 1 -40,0 20,20 0 1 1 40,0 z"
       sodipodi:ry="20"
       sodipodi:rx="20"
       sodipodi:cy="254.09448"
       sodipodi:cx="340"
       id="h3-pc-quarterly"
       style="fill:#ff0000;fill-opacity:1;stroke:#000000;stroke-width:2;stroke-linejoin:round;stroke-miterlimit:4;stroke-opacity:1;stroke-dasharray:none"
       sodipodi:type="arc"
       inkscape:label="#h3-pc-quarterly">
      <title
         id="title3885">Quarterly Crawl</title>
    </path>
    <path
       style="fill:none;stroke:#000000;stroke-width:3;stroke-linecap:butt;stroke-linejoin:miter;stroke-miterlimit:4;stroke-opacity:1;stroke-dasharray:3, 3;stroke-dashoffset:0"
       d="m 60,594.36218 c 40,10 110,30 110,50"
       id="pc-six-monthly-rate"
       inkscape:connector-curvature="0"
       sodipodi:nodetypes="cc"
       inkscape:label="#path3887">
      <title
         id="title3889">Six-Monthly Crawl Downloads</title>
    </path>
    <path
       sodipodi:nodetypes="cc"
       inkscape:connector-curvature="0"
       id="pc-annual-rate"
       d="m 60,604.36218 c 50,20 60,30 110,80"
       style="fill:none;stroke:#000000;stroke-width:3;stroke-linecap:butt;stroke-linejoin:miter;stroke-miterlimit:4;stroke-opacity:1;stroke-dasharray:3, 3;stroke-dashoffset:0"
       inkscape:label="#path3867">
      <title
         id="title3893">Annual Crawl Downloads</title>
    </path>
    <path
       transform="matrix(0.7,0,0,-0.7,-61.398437,817.92833)"
       d="m 360,254.09448 a 20,20 0 1 1 -40,0 20,20 0 1 1 40,0 z"
       sodipodi:ry="20"
       sodipodi:rx="20"
       sodipodi:cy="254.09448"
       sodipodi:cx="340"
       id="h3-pc-six-monthly"
       style="fill:#ff0000;fill-opacity:1;stroke:#000000;stroke-width:2;stroke-linejoin:round;stroke-miterlimit:4;stroke-opacity:1;stroke-dasharray:none"
       sodipodi:type="arc"
       inkscape:label="#h3-pc-sixmonthly">
      <title
         id="title3897">Six-Monthly Crawl</title>
    </path>
    <path
       inkscape:label="#h3-pc-annual"
       sodipodi:type="arc"
       style="fill:#ff0000;fill-opacity:1;stroke:#000000;stroke-width:2;stroke-linejoin:round;stroke-miterlimit:4;stroke-opacity:1;stroke-dasharray:none"
       id="h3-pc-annual"
       sodipodi:cx="340"
       sodipodi:cy="254.09448"
       sodipodi:rx="20"
       sodipodi:ry="20"
       d="m 360,254.09448 a 20,20 0 1 1 -40,0 20,20 0 1 1 40,0 z"
       transform="matrix(0.7,0,0,-0.7,-61.398437,859.72835)">
      <title
         id="title3901">Annual Crawl</title>
    </path>
    <text
       xml:space="preserve"
       style="font-size:16px;font-style:normal;font-variant:normal;font-weight:normal;font-stretch:normal;text-align:center;line-height:125%;letter-spacing:0px;word-spacing:0px;writing-mode:lr-tb;text-anchor:middle;fill:#000000;fill-opacity:1;stroke:none;font-family:Arial;-inkscape-font-specification:Arial"
       x="194.69922"
       y="422.36218"
       id="text3905"
       sodipodi:linespacing="125%"><tspan
         sodipodi:role="line"
         id="tspan3907"
         x="194.69922"
         y="422.36218">Frequent</tspan><tspan
         sodipodi:role="line"
         x="194.69922"
         y="442.36218"
         id="tspan3909">Crawls</tspan></text>
    <text
       xml:space="preserve"
       style="font-size:20px;font-style:normal;font-variant:normal;font-weight:normal;font-stretch:normal;text-align:center;line-height:125%;letter-spacing:0px;word-spacing:0px;text-anchor:middle;fill:#000000;fill-opacity:1;stroke:none;font-family:Arial;-inkscape-font-specification:Arial"
       x="110"
       y="352.36218"
       id="text3911"
       sodipodi:linespacing="125%"><tspan
         sodipodi:role="line"
         id="tspan3913"
         x="110"
         y="352.36218">INGEST</tspan></text>
    <text
       xml:space="preserve"
       style="font-size:20px;font-style:normal;font-variant:normal;font-weight:normal;font-stretch:normal;text-align:center;line-height:125%;letter-spacing:0px;word-spacing:0px;text-anchor:middle;fill:#000000;fill-opacity:1;stroke:none;font-family:Arial;-inkscape-font-specification:Arial"
       x="489.84619"
       y="352.36218"
       id="text3915"
       sodipodi:linespacing="125%"><tspan
         sodipodi:role="line"
         id="tspan3917"
         x="489.84619"
         y="352.36218">PRESERVE</tspan></text>
    <text
       xml:space="preserve"
       style="font-size:20px;font-style:normal;font-variant:normal;font-weight:normal;font-stretch:normal;text-align:center;line-height:125%;letter-spacing:0px;word-spacing:0px;text-anchor:middle;fill:#000000;fill-opacity:1;stroke:none;font-family:Arial;-inkscape-font-specification:Arial"
       x="870"
       y="352.36218"
       id="text3919"
       sodipodi:linespacing="125%"><tspan
         sodipodi:role="line"
         id="tspan3921"
         x="870"
         y="352.36218">ACCESS</tspan></text>
    <g
       id="g3931"
       transform="translate(0,207.95276)">
      <rect
         inkscape:label="#rect3927"
         ry="14"
         transform="translate(0,308.2677)"
         y="24.094482"
         x="20"
         height="280"
         width="40"
         id="the-internet"
         style="fill:#f9f9f9;fill-opacity:1;stroke:#000000;stroke-width:1.5;stroke-linejoin:round;stroke-miterlimit:4;stroke-opacity:1;stroke-dasharray:none;stroke-dashoffset:0">
        <title
           id="title3929">The Internet</title>
      </rect>
      <g
         style="font-size:20px;font-style:normal;font-variant:normal;font-weight:normal;font-stretch:normal;text-align:center;line-height:125%;letter-spacing:0px;word-spacing:0px;writing-mode:tb-rl;text-anchor:middle;fill:#000000;fill-opacity:1;stroke:none;font-family:Arial;-inkscape-font-specification:Arial"
         id="text3923">
        <path
           d="m 38.5,365.01941 0,-11.36426 -4.245117,0 0,-1.52051 10.21289,0 0,1.52051 -4.262695,0 0,11.36426 -1.705078,0"
           style="font-size:18px"
           id="path3938"
           inkscape:connector-curvature="0" />
        <path
           d="m 34.307617,385.71765 0,-12.88476 1.705078,0 0,5.29101 6.697266,0 0,-5.29101 1.705078,0 0,12.88476 -1.705078,0 0,-6.07324 -6.697266,0 0,6.07324 -1.705078,0"
           style="font-size:18px"
           id="path3940"
           inkscape:connector-curvature="0" />
        <path
           d="m 34.782227,406.41589 0,-12.88476 9.316406,0 0,1.52051 -7.611328,0 0,3.94628 7.127929,0 0,1.51172 -7.127929,0 0,4.38575 7.910156,0 0,1.5205 -9.615234,0"
           style="font-size:18px"
           id="path3942"
           inkscape:connector-curvature="0" />
        <path
           d="m 38.552734,447.81238 0,-12.88477 1.705078,0 0,12.88477 -1.705078,0"
           style="font-size:18px"
           id="path3944"
           inkscape:connector-curvature="0" />
        <path
           d="m 34.237305,468.51062 0,-12.88477 1.749023,0 6.767578,10.11622 0,-10.11622 1.634766,0 0,12.88477 -1.749024,0 -6.767578,-10.125 0,10.125 -1.634765,0"
           style="font-size:18px"
           id="path3946"
           inkscape:connector-curvature="0" />
        <path
           d="m 38.5,489.20886 0,-11.36426 -4.245117,0 0,-1.5205 10.21289,0 0,1.5205 -4.262695,0 0,11.36426 -1.705078,0"
           style="font-size:18px"
           id="path3948"
           inkscape:connector-curvature="0" />
        <path
           d="m 34.782227,509.9071 0,-12.88476 9.316406,0 0,1.52051 -7.611328,0 0,3.94629 7.127929,0 0,1.51171 -7.127929,0 0,4.38575 7.910156,0 0,1.5205 -9.615234,0"
           style="font-size:18px"
           id="path3950"
           inkscape:connector-curvature="0" />
        <path
           d="m 34.28125,530.60535 0,-12.88477 5.712891,0 c 1.148429,10e-6 2.021475,0.1172 2.61914,0.35156 0.597646,0.22853 1.075185,0.63576 1.432617,1.22168 0.357411,0.58595 0.536122,1.23341 0.536133,1.94239 -1.1e-5,0.91407 -0.29591,1.68457 -0.887695,2.31152 -0.591807,0.62696 -1.505869,1.0254 -2.742188,1.19531 0.451164,0.2168 0.793937,0.43067 1.028321,0.6416 0.498037,0.45704 0.969716,1.02833 1.415039,1.71387 l 2.241211,3.50684 -2.144532,0 -1.705078,-2.68067 c -0.498055,-0.77343 -0.908211,-1.36523 -1.230468,-1.77539 -0.322273,-0.41015 -0.612312,-0.69726 -0.870118,-0.86133 -0.251959,-0.16405 -0.509771,-0.27831 -0.773437,-0.34277 -0.193365,-0.041 -0.509771,-0.0615 -0.949219,-0.0615 l -1.977539,0 0,5.72168 -1.705078,0 m 1.705078,-7.19825 3.665039,0 c 0.779289,1e-5 1.388664,-0.0791 1.828125,-0.2373 0.439444,-0.16406 0.773428,-0.42187 1.001953,-0.77344 0.228506,-0.35741 0.342764,-0.74413 0.342774,-1.16015 -10e-6,-0.60937 -0.222666,-1.11035 -0.667969,-1.50293 -0.439462,-0.39257 -1.136727,-0.58886 -2.091797,-0.58887 l -4.078125,0 0,4.26269"
           style="font-size:18px"
           id="path3952"
           inkscape:connector-curvature="0" />
        <path
           d="m 34.237305,551.30359 0,-12.88477 1.749023,0 6.767578,10.11621 0,-10.11621 1.634766,0 0,12.88477 -1.749024,0 -6.767578,-10.125 0,10.125 -1.634765,0"
           style="font-size:18px"
           id="path3954"
           inkscape:connector-curvature="0" />
        <path
           d="m 34.782227,572.00183 0,-12.88476 9.316406,0 0,1.5205 -7.611328,0 0,3.94629 7.127929,0 0,1.51172 -7.127929,0 0,4.38574 7.910156,0 0,1.52051 -9.615234,0"
           style="font-size:18px"
           id="path3956"
           inkscape:connector-curvature="0" />
        <path
           d="m 38.5,592.70007 0,-11.36425 -4.245117,0 0,-1.52051 10.21289,0 0,1.52051 -4.262695,0 0,11.36425 -1.705078,0"
           style="font-size:18px"
           id="path3958"
           inkscape:connector-curvature="0" />
      </g>
    </g>
    <text
       sodipodi:linespacing="125%"
       id="text3046"
       y="967.48242"
       x="109.14294"
       style="font-size:20px;font-style:normal;font-variant:normal;font-weight:normal;font-stretch:normal;text-align:center;line-height:125%;letter-spacing:0px;word-spacing:0px;text-anchor:middle;fill:#000000;fill-opacity:1;stroke:none;font-family:Arial;-inkscape-font-specification:Arial"
       xml:space="preserve"><tspan
         y="967.48242"
         x="109.14294"
         sodipodi:role="line"
         id="tspan3050"
         style="font-size:14px">Stop/Start</tspan><tspan
         y="984.98242"
         x="109.14294"
         sodipodi:role="line"
         id="tspan3149"
         style="font-size:14px">Crawls</tspan></text>
    <path
       inkscape:label="#fc-webrender"
       sodipodi:type="arc"
       style="fill:#ff0000;fill-opacity:1;stroke:#000000;stroke-width:2;stroke-linejoin:round;stroke-miterlimit:4;stroke-opacity:1;stroke-dasharray:none"
       id="fc-webrender"
       sodipodi:cx="340"
       sodipodi:cy="254.09448"
       sodipodi:rx="20"
       sodipodi:ry="20"
       d="m 360,254.09448 a 20,20 0 1 1 -40,0 20,20 0 1 1 40,0 z"
       transform="matrix(0.7,0,0,-0.7,-23.398437,674.72832)">
      <title
         id="title3064">Web Renderer</title>
    </path>
    <path
       transform="matrix(0.7,0,0,-0.7,-23.398437,754.72832)"
       d="m 360,254.09448 a 20,20 0 1 1 -40,0 20,20 0 1 1 40,0 z"
       sodipodi:ry="20"
       sodipodi:rx="20"
       sodipodi:cy="254.09448"
       sodipodi:cx="340"
       id="fc-warcprox"
       style="fill:#ff0000;fill-opacity:1;stroke:#000000;stroke-width:2;stroke-linejoin:round;stroke-miterlimit:4;stroke-opacity:1;stroke-dasharray:none"
       sodipodi:type="arc"
       inkscape:label="#fc-warcprox">
      <title
         id="title3068">warcprox (for webrender)</title>
    </path>
    <path
       inkscape:label="#fc-rabbitmq"
       sodipodi:type="arc"
       style="fill:#ff0000;fill-opacity:1;stroke:#000000;stroke-width:2;stroke-linejoin:round;stroke-miterlimit:4;stroke-opacity:1;stroke-dasharray:none"
       id="fc-rabbitmq"
       sodipodi:cx="340"
       sodipodi:cy="254.09448"
       sodipodi:rx="20"
       sodipodi:ry="20"
       d="m 360,254.09448 a 20,20 0 1 1 -40,0 20,20 0 1 1 40,0 z"
       transform="matrix(0.7,0,0,-0.7,-23.398437,834.72832)">
      <title
         id="title3072">RabbitMQ</title>
    </path>
    <rect
       inkscape:label="#rect3903"
       ry="14"
       y="634.36218"
       x="270"
       height="230"
       width="90"
       id="domain-crawl"
       style="fill:#f9f9f9;stroke:#000000;stroke-width:1.5;stroke-linejoin:round;stroke-miterlimit:4;stroke-opacity:1;stroke-dasharray:none;stroke-dashoffset:0">
      <title
         id="title3078">Domain Crawl</title>
    </rect>
    <path
       sodipodi:nodetypes="cc"
       inkscape:connector-curvature="0"
       id="dc0-rate"
       d="m 60,772.36218 c 30,0 200,-78 230,-58"
       style="fill:none;stroke:#000000;stroke-width:3;stroke-linecap:butt;stroke-linejoin:miter;stroke-miterlimit:4;stroke-opacity:1;stroke-dasharray:3, 3;stroke-dashoffset:0"
       inkscape:label="#path3080">
      <title
         id="title3082">DC0 Downloads</title>
    </path>
    <path
       inkscape:label="#path3867"
       style="fill:none;stroke:#000000;stroke-width:3;stroke-linecap:butt;stroke-linejoin:miter;stroke-miterlimit:4;stroke-opacity:1;stroke-dasharray:3, 3;stroke-dashoffset:0"
       d="m 60,782.36218 c 50,10 200,-58 230,-28"
       id="dc1-rate"
       inkscape:connector-curvature="0"
       sodipodi:nodetypes="cc">
      <title
         id="title3086">DC1 Downloads</title>
    </path>
    <path
       inkscape:label="#h3-dc0"
       sodipodi:type="arc"
       style="fill:#ff0000;fill-opacity:1;stroke:#000000;stroke-width:2;stroke-linejoin:round;stroke-miterlimit:4;stroke-opacity:1;stroke-dasharray:none"
       id="h3-dc0"
       sodipodi:cx="340"
       sodipodi:cy="254.09448"
       sodipodi:rx="20"
       sodipodi:ry="20"
       d="m 360,254.09448 a 20,20 0 1 1 -40,0 20,20 0 1 1 40,0 z"
       transform="matrix(0.7,0,0,-0.7,58.601563,890.7283)">
      <title
         id="title3090">Domain Crawler 0</title>
    </path>
    <path
       transform="matrix(0.7,0,0,-0.7,58.601563,932.5283)"
       d="m 360,254.09448 a 20,20 0 1 1 -40,0 20,20 0 1 1 40,0 z"
       sodipodi:ry="20"
       sodipodi:rx="20"
       sodipodi:cy="254.09448"
       sodipodi:cx="340"
       id="h3-dc1"
       style="fill:#ff0000;fill-opacity:1;stroke:#000000;stroke-width:2;stroke-linejoin:round;stroke-miterlimit:4;stroke-opacity:1;stroke-dasharray:none"
       sodipodi:type="arc"
       inkscape:label="#h3-dc1">
      <title
         id="title3094">Domain Crawler 1</title>
    </path>
    <path
       inkscape:label="#path3871"
       style="fill:none;stroke:#000000;stroke-width:3;stroke-linecap:butt;stroke-linejoin:miter;stroke-miterlimit:4;stroke-opacity:1;stroke-dasharray:3, 3;stroke-dashoffset:0"
       d="m 60,792.36218 c 30,10 200,-38 230,2"
       id="dc2-rate"
       inkscape:connector-curvature="0"
       sodipodi:nodetypes="cc">
      <title
         id="title3098">DC2 Downloads</title>
    </path>
    <path
       sodipodi:nodetypes="cc"
       inkscape:connector-curvature="0"
       id="dc3-rate"
       d="m 60,802.36218 c 50,40 200,-18 230,32"
       style="fill:none;stroke:#000000;stroke-width:3;stroke-linecap:butt;stroke-linejoin:miter;stroke-miterlimit:4;stroke-opacity:1;stroke-dasharray:3, 3;stroke-dashoffset:0"
       inkscape:label="#path3867">
      <title
         id="title3102">DC3 Downloads</title>
    </path>
    <path
       transform="matrix(0.7,0,0,-0.7,58.601563,974.3283)"
       d="m 360,254.09448 a 20,20 0 1 1 -40,0 20,20 0 1 1 40,0 z"
       sodipodi:ry="20"
       sodipodi:rx="20"
       sodipodi:cy="254.09448"
       sodipodi:cx="340"
       id="h3-dc2"
       style="fill:#ff0000;fill-opacity:1;stroke:#000000;stroke-width:2;stroke-linejoin:round;stroke-miterlimit:4;stroke-opacity:1;stroke-dasharray:none"
       sodipodi:type="arc"
       inkscape:label="#h3-dc2">
      <title
         id="title3106">Domain Crawler 2</title>
    </path>
    <path
       inkscape:label="#h3-dc3"
       sodipodi:type="arc"
       style="fill:#ff0000;fill-opacity:1;stroke:#000000;stroke-width:2;stroke-linejoin:round;stroke-miterlimit:4;stroke-opacity:1;stroke-dasharray:none"
       id="h3-dc3"
       sodipodi:cx="340"
       sodipodi:cy="254.09448"
       sodipodi:rx="20"
       sodipodi:ry="20"
       d="m 360,254.09448 a 20,20 0 1 1 -40,0 20,20 0 1 1 40,0 z"
       transform="matrix(0.7,0,0,-0.7,58.601563,1016.1283)">
      <title
         id="title3110">Domain Crawler 3</title>
    </path>
    <text
       sodipodi:linespacing="125%"
       id="text3112"
       y="662.36218"
       x="314.69922"
       style="font-size:16px;font-style:normal;font-variant:normal;font-weight:normal;font-stretch:normal;text-align:center;line-height:125%;letter-spacing:0px;word-spacing:0px;writing-mode:lr-tb;text-anchor:middle;fill:#000000;fill-opacity:1;stroke:none;font-family:Arial;-inkscape-font-specification:Arial"
       xml:space="preserve"><tspan
         y="662.36218"
         x="314.69922"
         id="tspan3114"
         sodipodi:role="line">Domain</tspan><tspan
         id="tspan3116"
         y="682.36218"
         x="314.69922"
         sodipodi:role="line">Crawl</tspan></text>
    <path
       style="fill:#ff0000;fill-opacity:1;stroke:#000000;stroke-width:1.5;stroke-linejoin:round;stroke-miterlimit:4;stroke-opacity:1;stroke-dashoffset:0"
       d="m 326,727.86218 20,0 0,-30 -20,0 -10,15 z"
       id="dc0-in-queue"
       inkscape:connector-curvature="0"
       sodipodi:nodetypes="cccccc"
       inkscape:label="#rect3118">
      <title
         id="title3121">URL Queue for DC0</title>
    </path>
    <path
       inkscape:label="#rect3118"
       sodipodi:nodetypes="cccccc"
       inkscape:connector-curvature="0"
       id="dc1-in-queue"
       d="m 326,769.86218 20,0 0,-30 -20,0 -10,15 z"
       style="fill:#ff0000;fill-opacity:1;stroke:#000000;stroke-width:1.5;stroke-linejoin:round;stroke-miterlimit:4;stroke-opacity:1;stroke-dashoffset:0">
      <title
         id="title3125">URL Queue for DC1</title>
    </path>
    <path
       style="fill:#ff0000;fill-opacity:1;stroke:#000000;stroke-width:1.5;stroke-linejoin:round;stroke-miterlimit:4;stroke-opacity:1;stroke-dashoffset:0"
       d="m 326,811.86218 20,0 0,-30 -20,0 -10,15 z"
       id="dc2-in-queue"
       inkscape:connector-curvature="0"
       sodipodi:nodetypes="cccccc"
       inkscape:label="#rect3118">
      <title
         id="title3129">URL Queue for DC2</title>
    </path>
    <path
       inkscape:label="#rect3118"
       sodipodi:nodetypes="cccccc"
       inkscape:connector-curvature="0"
       id="dc3-in-queue"
       d="m 326,851.86218 20,0 0,-30 -20,0 -10,15 z"
       style="fill:#ff0000;fill-opacity:1;stroke:#000000;stroke-width:1.5;stroke-linejoin:round;stroke-miterlimit:4;stroke-opacity:1;stroke-dashoffset:0">
      <title
         id="title3133">URL Queue for DC3</title>
    </path>
    <path
       inkscape:label="#rect3118"
       sodipodi:nodetypes="cccccc"
       inkscape:connector-curvature="0"
       id="pulse-movetohdfs"
       d="m 205,937.3622 -1,-20.00002 -28,0 -1,20.00002 15,10 z"
       style="fill:#ff0000;fill-opacity:1;stroke:#000000;stroke-width:1.5;stroke-linejoin:round;stroke-miterlimit:4;stroke-opacity:1;stroke-dashoffset:0">
      <title
         id="title3137">Move to HDFS</title>
    </path>
    <path
       style="fill:#ff0000;fill-opacity:1;stroke:#000000;stroke-width:1.5;stroke-linejoin:round;stroke-miterlimit:4;stroke-opacity:1;stroke-dashoffset:0"
       d="m 125,937.3622 -1,-20.00002 -28,0 -1,20.00002 15,10 z"
       id="pulse-launcher"
       inkscape:connector-curvature="0"
       sodipodi:nodetypes="cccccc"
       inkscape:label="#rect3118">
      <title
         id="title3143">Stop/Start Crawl Jobs</title>
    </path>
    <text
       xml:space="preserve"
       style="font-size:20px;font-style:normal;font-variant:normal;font-weight:normal;font-stretch:normal;text-align:center;line-height:125%;letter-spacing:0px;word-spacing:0px;text-anchor:middle;fill:#000000;fill-opacity:1;stroke:none;font-family:Arial;-inkscape-font-specification:Arial"
       x="189.14294"
       y="967.48242"
       id="text3151"
       sodipodi:linespacing="125%"><tspan
         style="font-size:14px"
         id="tspan3153"
         sodipodi:role="line"
         x="189.14294"
         y="967.48242">Move to</tspan><tspan
         style="font-size:14px"
         id="tspan3155"
         sodipodi:role="line"
         x="189.14294"
         y="984.98242">HDFS</tspan></text>
    <path
       style="fill:#ff0000;fill-opacity:1;stroke:#000000;stroke-width:1.5;stroke-linejoin:round;stroke-miterlimit:4;stroke-opacity:1;stroke-dashoffset:0"
       d="m 285,937.3622 -1,-20.00002 -28,0 -1,20.00002 15,10 z"
       id="path3157"
       inkscape:connector-curvature="0"
       sodipodi:nodetypes="cccccc"
       inkscape:label="#rect3118">
      <title
         id="title3159">Move to HDFS</title>
    </path>
    <text
       sodipodi:linespacing="125%"
       id="text3161"
       y="967.48242"
       x="269.14294"
       style="font-size:20px;font-style:normal;font-variant:normal;font-weight:normal;font-stretch:normal;text-align:center;line-height:125%;letter-spacing:0px;word-spacing:0px;text-anchor:middle;fill:#000000;fill-opacity:1;stroke:none;font-family:Arial;-inkscape-font-specification:Arial"
       xml:space="preserve"><tspan
         y="967.48242"
         x="269.14294"
         sodipodi:role="line"
         style="font-size:14px"
         id="tspan3235">Assemble</tspan></text>
    <path
       inkscape:label="#rect3118"
       sodipodi:nodetypes="cccccc"
       inkscape:connector-curvature="0"
       id="path3169"
       d="m 524.38904,937.3622 -1,-20.00002 -28,0 -1,20.00002 15,10 z"
       style="fill:#ff0000;fill-opacity:1;stroke:#000000;stroke-width:1.5;stroke-linejoin:round;stroke-miterlimit:4;stroke-opacity:1;stroke-dashoffset:0">
      <title
         id="title3171">Move to HDFS</title>
    </path>
    <text
       xml:space="preserve"
       style="font-size:20px;font-style:normal;font-variant:normal;font-weight:normal;font-stretch:normal;text-align:center;line-height:125%;letter-spacing:0px;word-spacing:0px;text-anchor:middle;fill:#000000;fill-opacity:1;stroke:none;font-family:Arial;-inkscape-font-specification:Arial"
       x="509.14294"
       y="967.48242"
       id="text3173"
       sodipodi:linespacing="125%"><tspan
         style="font-size:14px"
         id="tspan3175"
         sodipodi:role="line"
         x="509.14294"
         y="967.48242">Package</tspan></text>
    <path
       style="fill:#ff0000;fill-opacity:1;stroke:#000000;stroke-width:1.5;stroke-linejoin:round;stroke-miterlimit:4;stroke-opacity:1;stroke-dashoffset:0"
       d="m 606.40955,937.3622 -1,-20.00002 -28,0 -1,20.00002 15,10 z"
       id="path3177"
       inkscape:connector-curvature="0"
       sodipodi:nodetypes="cccccc"
       inkscape:label="#rect3118">
      <title
         id="title3179">Move to HDFS</title>
    </path>
    <text
       sodipodi:linespacing="125%"
       id="text3181"
       y="967.48242"
       x="591.14294"
       style="font-size:20px;font-style:normal;font-variant:normal;font-weight:normal;font-stretch:normal;text-align:center;line-height:125%;letter-spacing:0px;word-spacing:0px;text-anchor:middle;fill:#000000;fill-opacity:1;stroke:none;font-family:Arial;-inkscape-font-specification:Arial"
       xml:space="preserve"><tspan
         y="967.48242"
         x="591.14294"
         sodipodi:role="line"
         id="tspan3183"
         style="font-size:14px">Submit</tspan><tspan
         y="984.98242"
         x="591.14294"
         sodipodi:role="line"
         style="font-size:14px"
         id="tspan3233">to DLS</tspan></text>
    <path
       inkscape:label="#rect3118"
       sodipodi:nodetypes="cccccc"
       inkscape:connector-curvature="0"
       id="path3185"
       d="m 686.11218,937.3622 -1,-20.00002 -28,0 -1,20.00002 15,10 z"
       style="fill:#ff0000;fill-opacity:1;stroke:#000000;stroke-width:1.5;stroke-linejoin:round;stroke-miterlimit:4;stroke-opacity:1;stroke-dashoffset:0">
      <title
         id="title3187">Move to HDFS</title>
    </path>
    <text
       xml:space="preserve"
       style="font-size:20px;font-style:normal;font-variant:normal;font-weight:normal;font-stretch:normal;text-align:center;line-height:125%;letter-spacing:0px;word-spacing:0px;text-anchor:middle;fill:#000000;fill-opacity:1;stroke:none;font-family:Arial;-inkscape-font-specification:Arial"
       x="671.14294"
       y="967.48242"
       id="text3189"
       sodipodi:linespacing="125%"><tspan
         style="font-size:14px"
         id="tspan3191"
         sodipodi:role="line"
         x="671.14294"
         y="967.48242">Verify</tspan><tspan
         style="font-size:14px"
         sodipodi:role="line"
         x="671.14294"
         y="984.98242"
         id="tspan3245">DLS copy</tspan></text>
    <path
       style="fill:#ff0000;fill-opacity:1;stroke:#000000;stroke-width:1.5;stroke-linejoin:round;stroke-miterlimit:4;stroke-opacity:1;stroke-dashoffset:0"
       d="m 767,937.3622 -1,-20.00002 -28,0 -1,20.00002 15,10 z"
       id="path3193"
       inkscape:connector-curvature="0"
       sodipodi:nodetypes="cccccc"
       inkscape:label="#rect3118">
      <title
         id="title3195">Move to HDFS</title>
    </path>
    <text
       sodipodi:linespacing="125%"
       id="text3197"
       y="967.48242"
       x="751.14294"
       style="font-size:20px;font-style:normal;font-variant:normal;font-weight:normal;font-stretch:normal;text-align:center;line-height:125%;letter-spacing:0px;word-spacing:0px;text-anchor:middle;fill:#000000;fill-opacity:1;stroke:none;font-family:Arial;-inkscape-font-specification:Arial"
       xml:space="preserve"><tspan
         y="967.48242"
         x="751.14294"
         sodipodi:role="line"
         style="font-size:14px"
         id="tspan3237">Index</tspan><tspan
         y="984.98242"
         x="751.14294"
         sodipodi:role="line"
         style="font-size:14px"
         id="tspan3241">(Access CDX)</tspan></text>
    <path
       inkscape:label="#rect3118"
       sodipodi:nodetypes="cccccc"
       inkscape:connector-curvature="0"
       id="path3201"
       d="m 847,937.3622 -1,-20.00002 -28,0 -1,20.00002 15,10 z"
       style="fill:#ff0000;fill-opacity:1;stroke:#000000;stroke-width:1.5;stroke-linejoin:round;stroke-miterlimit:4;stroke-opacity:1;stroke-dashoffset:0">
      <title
         id="title3203">Move to HDFS</title>
    </path>
    <text
       xml:space="preserve"
       style="font-size:20px;font-style:normal;font-variant:normal;font-weight:normal;font-stretch:normal;text-align:center;line-height:125%;letter-spacing:0px;word-spacing:0px;text-anchor:middle;fill:#000000;fill-opacity:1;stroke:none;font-family:Arial;-inkscape-font-specification:Arial"
       x="831.14294"
       y="967.48242"
       id="text3205"
       sodipodi:linespacing="125%"><tspan
         style="font-size:14px"
         id="tspan3207"
         sodipodi:role="line"
         x="831.14294"
         y="967.48242">Index</tspan><tspan
         style="font-size:14px"
         sodipodi:role="line"
         x="831.14294"
         y="984.98242"
         id="tspan3243">(Solr)</tspan></text>
    <path
       style="fill:#ff0000;fill-opacity:1;stroke:#000000;stroke-width:1.5;stroke-linejoin:round;stroke-miterlimit:4;stroke-opacity:1;stroke-dashoffset:0"
       d="m 364.38904,937.3622 -1,-20.00002 -28,0 -1,20.00002 15,10 z"
       id="path3209"
       inkscape:connector-curvature="0"
       sodipodi:nodetypes="cccccc"
       inkscape:label="#rect3118">
      <title
         id="title3211">Move to HDFS</title>
    </path>
    <text
       sodipodi:linespacing="125%"
       id="text3213"
       y="967.48242"
       x="349.69324"
       style="font-size:20px;font-style:normal;font-variant:normal;font-weight:normal;font-stretch:normal;text-align:center;line-height:125%;letter-spacing:0px;word-spacing:0px;text-anchor:middle;fill:#000000;fill-opacity:1;stroke:none;font-family:Arial;-inkscape-font-specification:Arial"
       xml:space="preserve"><tspan
         y="967.48242"
         x="349.69324"
         sodipodi:role="line"
         id="tspan3215"
         style="font-size:14px">Verify</tspan></text>
    <path
       inkscape:label="#rect3118"
       sodipodi:nodetypes="cccccc"
       inkscape:connector-curvature="0"
       id="path3217"
       d="m 806.11218,845.3622 -1,-20.00002 -28,0 -1,20.00002 15,10 z"
       style="fill:#ff0000;fill-opacity:1;stroke:#000000;stroke-width:1.5;stroke-linejoin:round;stroke-miterlimit:4;stroke-opacity:1;stroke-dashoffset:0">
      <title
         id="title3219">Move to HDFS</title>
    </path>
    <text
       xml:space="preserve"
       style="font-size:20px;font-style:normal;font-variant:normal;font-weight:normal;font-stretch:normal;text-align:center;line-height:125%;letter-spacing:0px;word-spacing:0px;text-anchor:middle;fill:#000000;fill-opacity:1;stroke:none;font-family:Arial;-inkscape-font-specification:Arial"
       x="790.84216"
       y="875.48242"
       id="text3221"
       sodipodi:linespacing="125%"><tspan
         style="font-size:14px"
         id="tspan3223"
         sodipodi:role="line"
         x="790.84216"
         y="875.48242">Extract</tspan><tspan
         style="font-size:14px"
         sodipodi:role="line"
         x="790.84216"
         y="892.98242"
         id="tspan3255">Documents</tspan></text>
    <path
       style="fill:#ff0000;fill-opacity:1;stroke:#000000;stroke-width:1.5;stroke-linejoin:round;stroke-miterlimit:4;stroke-opacity:1;stroke-dashoffset:0"
       d="m 446.40955,937.3622 -1,-20.00002 -28,0 -1,20.00002 15,10 z"
       id="path3225"
       inkscape:connector-curvature="0"
       sodipodi:nodetypes="cccccc"
       inkscape:label="#rect3118">
      <title
         id="title3227">Move to HDFS</title>
    </path>
    <text
       sodipodi:linespacing="125%"
       id="text3229"
       y="967.48242"
       x="431.24548"
       style="font-size:20px;font-style:normal;font-variant:normal;font-weight:normal;font-stretch:normal;text-align:center;line-height:125%;letter-spacing:0px;word-spacing:0px;text-anchor:middle;fill:#000000;fill-opacity:1;stroke:none;font-family:Arial;-inkscape-font-specification:Arial"
       xml:space="preserve"><tspan
         y="967.48242"
         x="433.18689"
         sodipodi:role="line"
         id="tspan3231"
         style="font-size:14px">Index </tspan><tspan
         y="984.98242"
         x="431.24548"
         sodipodi:role="line"
         style="font-size:14px"
         id="tspan3251">(QA CDX)</tspan></text>
    <path
       style="fill:#ff0000;fill-opacity:1;stroke:#000000;stroke-width:1.5;stroke-linejoin:round;stroke-miterlimit:4;stroke-opacity:1;stroke-dashoffset:0"
       d="m 886.11218,845.3622 -1,-20.00002 -28,0 -1,20.00002 15,10 z"
       id="path3259"
       inkscape:connector-curvature="0"
       sodipodi:nodetypes="cccccc"
       inkscape:label="#rect3118">
      <title
         id="title3261">Move to HDFS</title>
    </path>
    <text
       sodipodi:linespacing="125%"
       id="text3263"
       y="875.48242"
       x="870.84216"
       style="font-size:20px;font-style:normal;font-variant:normal;font-weight:normal;font-stretch:normal;text-align:center;line-height:125%;letter-spacing:0px;word-spacing:0px;text-anchor:middle;fill:#000000;fill-opacity:1;stroke:none;font-family:Arial;-inkscape-font-specification:Arial"
       xml:space="preserve"><tspan
         y="875.48242"
         x="870.84216"
         sodipodi:role="line"
         id="tspan3265"
         style="font-size:14px">Submit</tspan><tspan
         id="tspan3267"
         y="892.98242"
         x="870.84216"
         sodipodi:role="line"
         style="font-size:14px">Documents</tspan></text>
    <path
       inkscape:label="#rect3118"
       sodipodi:nodetypes="cccccc"
       inkscape:connector-curvature="0"
       id="path3269"
       d="m 927,937.3622 -1,-20.00002 -28,0 -1,20.00002 15,10 z"
       style="fill:#ff0000;fill-opacity:1;stroke:#000000;stroke-width:1.5;stroke-linejoin:round;stroke-miterlimit:4;stroke-opacity:1;stroke-dashoffset:0">
      <title
         id="title3271">Move to HDFS</title>
    </path>
    <text
       xml:space="preserve"
       style="font-size:20px;font-style:normal;font-variant:normal;font-weight:normal;font-stretch:normal;text-align:center;line-height:125%;letter-spacing:0px;word-spacing:0px;text-anchor:middle;fill:#000000;fill-opacity:1;stroke:none;font-family:Arial;-inkscape-font-specification:Arial"
       x="911.14294"
       y="967.48242"
       id="text3273"
       sodipodi:linespacing="125%"><tspan
         id="tspan3275"
         style="font-size:14px"
         sodipodi:role="line"
         x="911.14294"
         y="967.48242">Replicate</tspan><tspan
         id="tspan3277"
         style="font-size:14px"
         sodipodi:role="line"
         x="911.14294"
         y="984.98242">(Access CDX)</tspan></text>
    <path
       inkscape:label="#rect3118"
       sodipodi:nodetypes="ccccccc"
       inkscape:connector-curvature="0"
       id="webhdfs-gateway"
       d="m 421,527.36218 20,0 6,-15 -6,-15 -20,0 -6,15 z"
       style="fill:#ff0000;fill-opacity:1;stroke:#000000;stroke-width:1.5;stroke-linejoin:round;stroke-miterlimit:4;stroke-opacity:1;stroke-dashoffset:0">
      <title
         id="title3281">WebHDFS Gateway</title>
    </path>
  </g>
</svg>
