<?xml version="1.0" encoding="UTF-8" standalone="no"?>
<!-- Created with Inkscape (http://www.inkscape.org/) -->

<svg
   xmlns:dc="http://purl.org/dc/elements/1.1/"
   xmlns:cc="http://creativecommons.org/ns#"
   xmlns:rdf="http://www.w3.org/1999/02/22-rdf-syntax-ns#"
   xmlns:svg="http://www.w3.org/2000/svg"
   xmlns="http://www.w3.org/2000/svg"
   xmlns:sodipodi="http://sodipodi.sourceforge.net/DTD/sodipodi-0.dtd"
   xmlns:inkscape="http://www.inkscape.org/namespaces/inkscape"
   width="1052.3622"
   height="744.09448"
   id="svg2"
   version="1.1"
   inkscape:version="0.48.5 r10040"
   sodipodi:docname="overview.svg">
  <defs
     id="defs4" />
  <sodipodi:namedview
     id="base"
     pagecolor="#ffffff"
     bordercolor="#666666"
     borderopacity="1.0"
     inkscape:pageopacity="0.0"
     inkscape:pageshadow="2"
     inkscape:zoom="1.0724445"
     inkscape:cx="526.18109"
     inkscape:cy="289.32314"
     inkscape:document-units="px"
     inkscape:current-layer="layer1"
     showgrid="true"
     inkscape:window-width="1654"
     inkscape:window-height="1005"
     inkscape:window-x="33"
     inkscape:window-y="0"
     inkscape:window-maximized="0">
    <inkscape:grid
       type="xygrid"
       id="grid3006"
       empspacing="5"
       visible="true"
       enabled="true"
       snapvisiblegridlinesonly="true" />
  </sodipodi:namedview>
  <metadata
     id="metadata7">
    <rdf:RDF>
      <cc:Work
         rdf:about="">
        <dc:format>image/svg+xml</dc:format>
        <dc:type
           rdf:resource="http://purl.org/dc/dcmitype/StillImage" />
        <dc:title></dc:title>
      </cc:Work>
    </rdf:RDF>
  </metadata>
  <g
     inkscape:label="Layer 1"
     inkscape:groupmode="layer"
     id="layer1"
     transform="translate(0,-308.2677)">
    <rect
       style="fill:#f9f9f9;stroke:#000000;stroke-width:1.50000000000000000;stroke-linejoin:round;stroke-miterlimit:4;stroke-opacity:1;stroke-dasharray:none;stroke-dashoffset:0"
       id="rect3903"
       width="100"
       height="410"
       x="228.60156"
       y="380.36218"
       ry="14" />
    <path
       sodipodi:type="arc"
       style="fill:#ff0000;fill-opacity:1;stroke:#000000;stroke-width:2;stroke-linejoin:round;stroke-miterlimit:4;stroke-opacity:1;stroke-dasharray:none"
       id="hdfs-prod"
       sodipodi:cx="340"
       sodipodi:cy="254.09448"
       sodipodi:rx="20"
       sodipodi:ry="20"
       d="m 360,254.09448 a 20,20 0 1 1 -40,0 20,20 0 1 1 40,0 z"
       transform="matrix(1,0,0,-1,200,734.45666)">
      <title
         id="title3778">HDFS</title>
    </path>
    <path
       style="fill:none;stroke:#000000;stroke-width:3;stroke-linecap:butt;stroke-linejoin:miter;stroke-miterlimit:4;stroke-opacity:1;stroke-dasharray:3, 3;stroke-dashoffset:0"
       d="m 60,582.36218 c 70,-30 152.15099,-138.7849 220,-132"
       id="pc-daily-rate"
       inkscape:connector-curvature="0"
       sodipodi:nodetypes="cc">
      <title
         id="title3790">Daily Crawl Downloads</title>
    </path>
    <path
       sodipodi:nodetypes="cc"
       inkscape:connector-curvature="0"
       id="pc-weekly-rate"
       d="m 60,592.36218 c 70,-30 152.15099,-88.7849 220,-82"
       style="fill:none;stroke:#000000;stroke-width:3;stroke-linecap:butt;stroke-linejoin:miter;stroke-miterlimit:4;stroke-opacity:1;stroke-dasharray:3, 3;stroke-dashoffset:0"
       inkscape:label="#path3867">
      <title
         id="title3869">Weekly Crawl Downloads</title>
    </path>
    <path
       transform="matrix(1,0,0,-1,-61.398437,704.45666)"
       d="m 360,254.09448 a 20,20 0 1 1 -40,0 20,20 0 1 1 40,0 z"
       sodipodi:ry="20"
       sodipodi:rx="20"
       sodipodi:cy="254.09448"
       sodipodi:cx="340"
       id="h3-pc-daily"
       style="fill:#ff0000;fill-opacity:1;stroke:#000000;stroke-width:2;stroke-linejoin:round;stroke-miterlimit:4;stroke-opacity:1;stroke-dasharray:none"
       sodipodi:type="arc"
       inkscape:label="#h3-pc-daily">
      <title
         id="title3782">Daily Crawl</title>
    </path>
    <path
       inkscape:label="#h3-pc-weekly"
       sodipodi:type="arc"
       style="fill:#ff0000;fill-opacity:1;stroke:#000000;stroke-width:2;stroke-linejoin:round;stroke-miterlimit:4;stroke-opacity:1;stroke-dasharray:none"
       id="h3-pc-weekly"
       sodipodi:cx="340"
       sodipodi:cy="254.09448"
       sodipodi:rx="20"
       sodipodi:ry="20"
       d="m 360,254.09448 a 20,20 0 1 1 -40,0 20,20 0 1 1 40,0 z"
       transform="matrix(1,0,0,-1,-61.398437,766.45666)">
      <title
         id="title3851">Weekly Crawl</title>
    </path>
    <path
       sodipodi:nodetypes="cc"
       inkscape:connector-curvature="0"
       id="pc-monthly-rate"
       d="m 60,602.36218 c 70,-30 152.15099,-32.7849 220,-26"
       style="fill:none;stroke:#000000;stroke-width:3;stroke-linecap:butt;stroke-linejoin:miter;stroke-miterlimit:4;stroke-opacity:1;stroke-dasharray:3, 3;stroke-dashoffset:0"
       inkscape:label="#path3871">
      <title
         id="title3873">Monthly Crawl Downloads</title>
    </path>
    <path
       inkscape:label="#path3867"
       style="fill:none;stroke:#000000;stroke-width:3;stroke-linecap:butt;stroke-linejoin:miter;stroke-miterlimit:4;stroke-opacity:1;stroke-dasharray:3, 3;stroke-dashoffset:0"
       d="m 60,612.36218 c 70,-30 152.15099,17.2151 220,24"
       id="pc-quarterly-rate"
       inkscape:connector-curvature="0"
       sodipodi:nodetypes="cc">
      <title
         id="title3877">Quarterly Crawl Downloads</title>
    </path>
    <path
       inkscape:label="#h3-pc-monthly"
       sodipodi:type="arc"
       style="fill:#ff0000;fill-opacity:1;stroke:#000000;stroke-width:2;stroke-linejoin:round;stroke-miterlimit:4;stroke-opacity:1;stroke-dasharray:none"
       id="h3-pc-monthly"
       sodipodi:cx="340"
       sodipodi:cy="254.09448"
       sodipodi:rx="20"
       sodipodi:ry="20"
       d="m 360,254.09448 a 20,20 0 1 1 -40,0 20,20 0 1 1 40,0 z"
       transform="matrix(1,0,0,-1,-61.398437,828.45666)">
      <title
         id="title3881">Monthly Crawl</title>
    </path>
    <path
       transform="matrix(1,0,0,-1,-61.398437,890.45667)"
       d="m 360,254.09448 a 20,20 0 1 1 -40,0 20,20 0 1 1 40,0 z"
       sodipodi:ry="20"
       sodipodi:rx="20"
       sodipodi:cy="254.09448"
       sodipodi:cx="340"
       id="h3-pc-quarterly"
       style="fill:#ff0000;fill-opacity:1;stroke:#000000;stroke-width:2;stroke-linejoin:round;stroke-miterlimit:4;stroke-opacity:1;stroke-dasharray:none"
       sodipodi:type="arc"
       inkscape:label="#h3-pc-quarterly">
      <title
         id="title3885">Quarterly Crawl</title>
    </path>
    <path
       style="fill:none;stroke:#000000;stroke-width:3;stroke-linecap:butt;stroke-linejoin:miter;stroke-miterlimit:4;stroke-opacity:1;stroke-dasharray:3, 3;stroke-dashoffset:0"
       d="m 60,622.36218 c 70,-30 152.15099,69.2151 220,76"
       id="pc-six-monthly-rate"
       inkscape:connector-curvature="0"
       sodipodi:nodetypes="cc"
       inkscape:label="#path3887">
      <title
         id="title3889">Six-Monthly Crawl Downloads</title>
    </path>
    <path
       sodipodi:nodetypes="cc"
       inkscape:connector-curvature="0"
       id="pc-annual-rate"
       d="m 60,632.36218 c 70,-30 152.15099,119.2151 220,126"
       style="fill:none;stroke:#000000;stroke-width:3;stroke-linecap:butt;stroke-linejoin:miter;stroke-miterlimit:4;stroke-opacity:1;stroke-dasharray:3, 3;stroke-dashoffset:0"
       inkscape:label="#path3867">
      <title
         id="title3893">Annual Crawl Downloads</title>
    </path>
    <path
       transform="matrix(1,0,0,-1,-61.398437,952.4567)"
       d="m 360,254.09448 a 20,20 0 1 1 -40,0 20,20 0 1 1 40,0 z"
       sodipodi:ry="20"
       sodipodi:rx="20"
       sodipodi:cy="254.09448"
       sodipodi:cx="340"
       id="h3-pc-six-monthly"
       style="fill:#ff0000;fill-opacity:1;stroke:#000000;stroke-width:2;stroke-linejoin:round;stroke-miterlimit:4;stroke-opacity:1;stroke-dasharray:none"
       sodipodi:type="arc"
       inkscape:label="#h3-pc-sixmonthly">
      <title
         id="title3897">Six-Monthly Crawl</title>
    </path>
    <path
       inkscape:label="#h3-pc-annual"
       sodipodi:type="arc"
       style="fill:#ff0000;fill-opacity:1;stroke:#000000;stroke-width:2;stroke-linejoin:round;stroke-miterlimit:4;stroke-opacity:1;stroke-dasharray:none"
       id="h3-pc-annual"
       sodipodi:cx="340"
       sodipodi:cy="254.09448"
       sodipodi:rx="20"
       sodipodi:ry="20"
       d="m 360,254.09448 a 20,20 0 1 1 -40,0 20,20 0 1 1 40,0 z"
       transform="matrix(1,0,0,-1,-61.398437,1014.4567)">
      <title
         id="title3901">Annual Crawl</title>
    </path>
    <text
       xml:space="preserve"
       style="font-size:16px;font-style:normal;font-variant:normal;font-weight:normal;font-stretch:normal;text-align:center;line-height:125%;letter-spacing:0px;word-spacing:0px;writing-mode:lr-tb;text-anchor:middle;fill:#000000;fill-opacity:1;stroke:none;font-family:Arial;-inkscape-font-specification:Arial"
       x="278"
       y="400.36218"
       id="text3905"
       sodipodi:linespacing="125%"><tspan
         sodipodi:role="line"
         id="tspan3907"
         x="278"
         y="400.36218">Frequent</tspan><tspan
         sodipodi:role="line"
         x="278"
         y="420.36218"
         id="tspan3909">Crawls</tspan></text>
    <text
       xml:space="preserve"
       style="font-size:20px;font-style:normal;font-variant:normal;font-weight:normal;font-stretch:normal;text-align:center;line-height:125%;letter-spacing:0px;word-spacing:0px;text-anchor:middle;fill:#000000;fill-opacity:1;stroke:none;font-family:Arial;-inkscape-font-specification:Arial"
       x="185.14296"
       y="351.48251"
       id="text3911"
       sodipodi:linespacing="125%"><tspan
         sodipodi:role="line"
         id="tspan3913"
         x="185.14296"
         y="351.48251">INGEST</tspan></text>
    <text
       xml:space="preserve"
       style="font-size:20px;font-style:normal;font-variant:normal;font-weight:normal;font-stretch:normal;text-align:center;line-height:125%;letter-spacing:0px;word-spacing:0px;text-anchor:middle;fill:#000000;fill-opacity:1;stroke:none;font-family:Arial;-inkscape-font-specification:Arial"
       x="537.40692"
       y="351.48251"
       id="text3915"
       sodipodi:linespacing="125%"><tspan
         sodipodi:role="line"
         id="tspan3917"
         x="537.40692"
         y="351.48251">PRESERVE</tspan></text>
    <text
       xml:space="preserve"
       style="font-size:20px;font-style:normal;font-variant:normal;font-weight:normal;font-stretch:normal;text-align:center;line-height:125%;letter-spacing:0px;word-spacing:0px;text-anchor:middle;fill:#000000;fill-opacity:1;stroke:none;font-family:Arial;-inkscape-font-specification:Arial"
       x="889.97852"
       y="351.48251"
       id="text3919"
       sodipodi:linespacing="125%"><tspan
         sodipodi:role="line"
         id="tspan3921"
         x="889.97852"
         y="351.48251">ACCESS</tspan></text>
    <g
       id="g3931"
       transform="translate(0,207.95276)">
      <rect
         inkscape:label="#rect3927"
         ry="14"
         transform="translate(0,308.2677)"
         y="24.094482"
         x="20"
         height="280"
         width="40"
         id="the-internet"
         style="fill:#f9f9f9;fill-opacity:1;stroke:#000000;stroke-width:1.5;stroke-linejoin:round;stroke-miterlimit:4;stroke-opacity:1;stroke-dasharray:none;stroke-dashoffset:0">
        <title
           id="title3929">The Internet</title>
      </rect>
      <g
         style="font-size:20px;font-style:normal;font-variant:normal;font-weight:normal;font-stretch:normal;text-align:center;line-height:125%;letter-spacing:0px;word-spacing:0px;writing-mode:tb-rl;text-anchor:middle;fill:#000000;fill-opacity:1;stroke:none;font-family:Arial;-inkscape-font-specification:Arial"
         id="text3923">
        <path
           d="m 38.5,365.01941 0,-11.36426 -4.245117,0 0,-1.52051 10.21289,0 0,1.52051 -4.262695,0 0,11.36426 -1.705078,0"
           style="font-size:18px"
           id="path3938" />
        <path
           d="m 34.307617,385.71765 0,-12.88476 1.705078,0 0,5.29101 6.697266,0 0,-5.29101 1.705078,0 0,12.88476 -1.705078,0 0,-6.07324 -6.697266,0 0,6.07324 -1.705078,0"
           style="font-size:18px"
           id="path3940" />
        <path
           d="m 34.782227,406.41589 0,-12.88476 9.316406,0 0,1.52051 -7.611328,0 0,3.94628 7.127929,0 0,1.51172 -7.127929,0 0,4.38575 7.910156,0 0,1.5205 -9.615234,0"
           style="font-size:18px"
           id="path3942" />
        <path
           d="m 38.552734,447.81238 0,-12.88477 1.705078,0 0,12.88477 -1.705078,0"
           style="font-size:18px"
           id="path3944" />
        <path
           d="m 34.237305,468.51062 0,-12.88477 1.749023,0 6.767578,10.11622 0,-10.11622 1.634766,0 0,12.88477 -1.749024,0 -6.767578,-10.125 0,10.125 -1.634765,0"
           style="font-size:18px"
           id="path3946" />
        <path
           d="m 38.5,489.20886 0,-11.36426 -4.245117,0 0,-1.5205 10.21289,0 0,1.5205 -4.262695,0 0,11.36426 -1.705078,0"
           style="font-size:18px"
           id="path3948" />
        <path
           d="m 34.782227,509.9071 0,-12.88476 9.316406,0 0,1.52051 -7.611328,0 0,3.94629 7.127929,0 0,1.51171 -7.127929,0 0,4.38575 7.910156,0 0,1.5205 -9.615234,0"
           style="font-size:18px"
           id="path3950" />
        <path
           d="m 34.28125,530.60535 0,-12.88477 5.712891,0 c 1.148429,10e-6 2.021475,0.1172 2.61914,0.35156 0.597646,0.22853 1.075185,0.63576 1.432617,1.22168 0.357411,0.58595 0.536122,1.23341 0.536133,1.94239 -1.1e-5,0.91407 -0.29591,1.68457 -0.887695,2.31152 -0.591807,0.62696 -1.505869,1.0254 -2.742188,1.19531 0.451164,0.2168 0.793937,0.43067 1.028321,0.6416 0.498037,0.45704 0.969716,1.02833 1.415039,1.71387 l 2.241211,3.50684 -2.144532,0 -1.705078,-2.68067 c -0.498055,-0.77343 -0.908211,-1.36523 -1.230468,-1.77539 -0.322273,-0.41015 -0.612312,-0.69726 -0.870118,-0.86133 -0.251959,-0.16405 -0.509771,-0.27831 -0.773437,-0.34277 -0.193365,-0.041 -0.509771,-0.0615 -0.949219,-0.0615 l -1.977539,0 0,5.72168 -1.705078,0 m 1.705078,-7.19825 3.665039,0 c 0.779289,10e-6 1.388664,-0.0791 1.828125,-0.2373 0.439444,-0.16406 0.773428,-0.42187 1.001953,-0.77344 0.228506,-0.35741 0.342764,-0.74413 0.342774,-1.16015 -10e-6,-0.60937 -0.222666,-1.11035 -0.667969,-1.50293 -0.439462,-0.39257 -1.136727,-0.58886 -2.091797,-0.58887 l -4.078125,0 0,4.26269"
           style="font-size:18px"
           id="path3952" />
        <path
           d="m 34.237305,551.30359 0,-12.88477 1.749023,0 6.767578,10.11621 0,-10.11621 1.634766,0 0,12.88477 -1.749024,0 -6.767578,-10.125 0,10.125 -1.634765,0"
           style="font-size:18px"
           id="path3954" />
        <path
           d="m 34.782227,572.00183 0,-12.88476 9.316406,0 0,1.5205 -7.611328,0 0,3.94629 7.127929,0 0,1.51172 -7.127929,0 0,4.38574 7.910156,0 0,1.52051 -9.615234,0"
           style="font-size:18px"
           id="path3956" />
        <path
           d="m 38.5,592.70007 0,-11.36425 -4.245117,0 0,-1.52051 10.21289,0 0,1.52051 -4.262695,0 0,11.36425 -1.705078,0"
           style="font-size:18px"
           id="path3958" />
      </g>
    </g>
  </g>
</svg>
